
<svg fill="#212259" viewBox="0 0 1024 1024" xmlns="http://www.w3.org/2000/svg"><g id="SVGRepo_bgCarrier" stroke-width="0"></g><g id="SVGRepo_tracerCarrier" stroke-linecap="round" stroke-linejoin="round"></g><g id="SVGRepo_iconCarrier"><path d="M667.953 25.56l171.377 982.313c1.944 11.142 12.553 18.599 23.695 16.655s18.599-12.553 16.655-23.695L708.303 18.52C706.359 7.378 695.75-.079 684.608 1.865s-18.599 12.553-16.655 23.695zm-352.909-7.039l-171.377 982.313c-1.944 11.142 5.513 21.751 16.655 23.695s21.751-5.513 23.695-16.655L355.394 25.561c1.944-11.142-5.513-21.751-16.655-23.695s-21.751 5.513-23.695 16.655zm173.494 1.96v81.92c0 11.311 9.169 20.48 20.48 20.48s20.48-9.169 20.48-20.48v-81.92c0-11.311-9.169-20.48-20.48-20.48s-20.48 9.169-20.48 20.48zm0 198.087v133.12c0 11.311 9.169 20.48 20.48 20.48s20.48-9.169 20.48-20.48v-133.12c0-11.311-9.169-20.48-20.48-20.48s-20.48 9.169-20.48 20.48zm0 249.286v184.32c0 11.311 9.169 20.48 20.48 20.48s20.48-9.169 20.48-20.48v-184.32c0-11.311-9.169-20.48-20.48-20.48s-20.48 9.169-20.48 20.48zm0 300.488v235.52c0 11.311 9.169 20.48 20.48 20.48s20.48-9.169 20.48-20.48v-235.52c0-11.311-9.169-20.48-20.48-20.48s-20.48 9.169-20.48 20.48z"></path></g></svg>