<svg viewBox="0 0 48 48" enable-background="new 0 0 48 48" id="_x3C_Layer_x3E_" version="1.1" xml:space="preserve" xmlns="http://www.w3.org/2000/svg" xmlns:xlink="http://www.w3.org/1999/xlink" fill="#000000"><g id="SVGRepo_bgCarrier" stroke-width="0"></g><g id="SVGRepo_tracerCarrier" stroke-linecap="round" stroke-linejoin="round"></g><g id="SVGRepo_iconCarrier"> <g id="puzzle_x2C__expansion"> <path d="M43.003,24.623c-1.889-0.462-3.603,0.423-4.449,1.877H37.5v-11c0-2.209-1.791-4-4-4H22v-1.055 c1.454-0.846,2.339-2.56,1.877-4.449c-0.346-1.414-1.5-2.556-2.917-2.885C18.333,2.501,16,4.478,16,7c0,1.477,0.81,2.752,2,3.445 V11.5H6.5c-2.209,0-4,1.791-4,4V26h1.055c0.846-1.454,2.56-2.339,4.449-1.877c1.414,0.346,2.556,1.5,2.885,2.917 C11.499,29.667,9.522,32,7,32c-1.477,0-2.752-0.81-3.445-2H2.5v11.5c0,2.209,1.791,4,4,4H18v-1.055 c-1.454-0.846-2.339-2.56-1.877-4.449c0.346-1.414,1.5-2.556,2.917-2.885C21.667,36.501,24,38.478,24,41 c0,1.477-0.81,2.752-2,3.445V45.5h11.5c2.209,0,4-1.791,4-4v-11h1.055c0.693,1.19,1.969,2,3.445,2c2.522,0,4.499-2.333,3.888-4.959 C45.559,26.123,44.417,24.969,43.003,24.623z" fill="#FFFFFF"></path> <path d="M33.5,45H22.351l0.843-0.852C24.024,43.309,24.5,42.162,24.5,41c0-1.381-0.621-2.666-1.703-3.525 c-1.082-0.86-2.492-1.169-3.869-0.85c-1.607,0.373-2.898,1.65-3.29,3.253c-0.381,1.556,0.055,3.152,1.165,4.271L17.649,45H6.5 C4.57,45,3,43.43,3,41.5V30.351l0.852,0.843C4.691,32.024,5.838,32.5,7,32.5c1.381,0,2.666-0.621,3.525-1.703 c0.86-1.083,1.17-2.493,0.85-3.869c-0.373-1.607-1.65-2.898-3.253-3.29c-1.555-0.383-3.152,0.054-4.271,1.165L3,25.649V15.5 C3,13.57,4.57,12,6.5,12H18c0.276,0,0.5-0.224,0.5-0.5v-1.055c0-0.177-0.095-0.343-0.249-0.432C17.155,9.375,16.5,8.248,16.5,7 c0-1.074,0.483-2.073,1.325-2.743c0.859-0.68,1.933-0.912,3.022-0.658c1.223,0.284,2.246,1.295,2.544,2.517 c0.382,1.563-0.262,3.094-1.643,3.897c-0.153,0.089-0.249,0.255-0.249,0.432V11.5c0,0.276,0.224,0.5,0.5,0.5h11.5 c1.93,0,3.5,1.57,3.5,3.5v11c0,0.276,0.224,0.5,0.5,0.5h1.055c0.177,0,0.343-0.095,0.432-0.249 c0.804-1.382,2.336-2.027,3.898-1.643c1.221,0.298,2.232,1.321,2.516,2.545l0,0c0.254,1.093,0.021,2.166-0.658,3.021 C44.073,31.517,43.074,32,42,32c-1.248,0-2.375-0.655-3.013-1.751C38.897,30.095,38.732,30,38.555,30H37.5 c-0.276,0-0.5,0.224-0.5,0.5v11C37,43.43,35.43,45,33.5,45z M24.593,44H33.5c1.378,0,2.5-1.122,2.5-2.5v-11 c0-0.827,0.673-1.5,1.5-1.5h1.055c0.532,0,1.028,0.286,1.296,0.746C40.309,30.531,41.112,31,42,31c0.767,0,1.481-0.345,1.959-0.947 c0.485-0.611,0.651-1.383,0.468-2.173l0,0c-0.2-0.865-0.916-1.589-1.779-1.8c-1.124-0.277-2.221,0.185-2.796,1.174 C39.583,27.714,39.086,28,38.555,28H37.5c-0.827,0-1.5-0.673-1.5-1.5v-11c0-1.378-1.122-2.5-2.5-2.5H22c-0.827,0-1.5-0.673-1.5-1.5 v-1.055c0-0.532,0.286-1.028,0.746-1.296c0.988-0.575,1.449-1.673,1.174-2.796c-0.211-0.864-0.934-1.58-1.799-1.78 c-0.789-0.184-1.561-0.018-2.174,0.468C17.845,5.519,17.5,6.233,17.5,7c0,0.888,0.469,1.691,1.254,2.149 c0.46,0.268,0.746,0.765,0.746,1.296V11.5c0,0.827-0.673,1.5-1.5,1.5H6.5C5.122,13,4,14.122,4,15.5v7.9 c1.266-0.834,2.831-1.109,4.36-0.733c1.966,0.48,3.532,2.064,3.989,4.035c0.389,1.675,0.01,3.394-1.041,4.717 C10.258,32.742,8.688,33.5,7,33.5c-1.06,0-2.11-0.323-3-0.907V41.5C4,42.878,5.122,44,6.5,44h8.9 c-0.833-1.265-1.108-2.83-0.734-4.36c0.48-1.966,2.064-3.532,4.036-3.989c1.671-0.393,3.394-0.011,4.717,1.041 C24.742,37.742,25.5,39.312,25.5,41C25.5,42.06,25.177,43.11,24.593,44z" fill="#FFFFFFFFFFF"></path> <path d="M33.5,46H22c-0.276,0-0.5-0.224-0.5-0.5v-1.055c0-0.178,0.095-0.343,0.249-0.432 C22.845,43.375,23.5,42.249,23.5,41c0-1.074-0.483-2.074-1.325-2.742c-0.842-0.67-1.945-0.909-3.021-0.659 c-1.243,0.289-2.242,1.276-2.545,2.517c-0.383,1.564,0.262,3.094,1.643,3.898c0.154,0.089,0.249,0.254,0.249,0.432V45.5 c0,0.276-0.224,0.5-0.5,0.5H6.5C4.019,46,2,43.981,2,41.5V30c0-0.276,0.224-0.5,0.5-0.5h1.055c0.178,0,0.343,0.095,0.432,0.249 C4.625,30.845,5.751,31.5,7,31.5c1.074,0,2.074-0.483,2.742-1.325c0.669-0.842,0.91-1.943,0.659-3.021 c-0.289-1.243-1.276-2.242-2.517-2.545c-1.564-0.383-3.094,0.262-3.898,1.643C3.897,26.405,3.733,26.5,3.555,26.5H2.5 C2.224,26.5,2,26.276,2,26V15.5C2,13.019,4.019,11,6.5,11h11v-0.278c-1.241-0.833-2-2.234-2-3.722c0-1.381,0.621-2.666,1.703-3.525 c1.083-0.859,2.493-1.171,3.87-0.85c1.606,0.373,2.898,1.649,3.29,3.253c0.459,1.878-0.286,3.788-1.863,4.844V11h11 c2.481,0,4.5,2.019,4.5,4.5V26h0.278c1.056-1.577,2.964-2.324,4.844-1.863l0,0c1.604,0.392,2.88,1.684,3.253,3.29 c0.32,1.376,0.01,2.787-0.85,3.87C44.666,32.379,43.381,33,42,33c-1.488,0-2.888-0.759-3.722-2H38v10.5 C38,43.981,35.981,46,33.5,46z M22.5,45h11c1.93,0,3.5-1.57,3.5-3.5v-11c0-0.276,0.224-0.5,0.5-0.5h1.055 c0.178,0,0.343,0.095,0.432,0.249C39.625,31.345,40.751,32,42,32c1.074,0,2.074-0.483,2.742-1.325 c0.669-0.842,0.91-1.943,0.659-3.021c-0.289-1.243-1.276-2.242-2.517-2.545l0,0c-1.563-0.383-3.094,0.262-3.898,1.643 C38.897,26.905,38.733,27,38.555,27H37.5c-0.276,0-0.5-0.224-0.5-0.5v-11c0-1.93-1.57-3.5-3.5-3.5H22c-0.276,0-0.5-0.224-0.5-0.5 v-1.055c0-0.178,0.095-0.343,0.249-0.432c1.38-0.804,2.025-2.333,1.643-3.898c-0.303-1.24-1.302-2.228-2.545-2.517 c-1.074-0.25-2.178-0.01-3.021,0.659C16.983,4.926,16.5,5.926,16.5,7c0,1.249,0.655,2.375,1.751,3.013 c0.154,0.089,0.249,0.254,0.249,0.432V11.5c0,0.276-0.224,0.5-0.5,0.5H6.5C4.57,12,3,13.57,3,15.5v10h0.278 c1.056-1.577,2.965-2.323,4.844-1.863c1.604,0.392,2.88,1.684,3.253,3.29c0.32,1.376,0.01,2.787-0.85,3.87 C9.666,31.879,8.381,32.5,7,32.5c-1.488,0-2.888-0.759-3.722-2H3v11C3,43.43,4.57,45,6.5,45h11v-0.278 c-1.577-1.056-2.322-2.966-1.863-4.844c0.392-1.604,1.684-2.88,3.29-3.253c1.377-0.322,2.787-0.01,3.87,0.85 C23.879,38.334,24.5,39.619,24.5,41c0,1.488-0.759,2.888-2,3.722V45z" fill="#212259"></path> </g> </g></svg>